<?xml version="1.0" standalone="no"?>
<!DOCTYPE svg PUBLIC "-//W3C//DTD SVG 20010904//EN"
 "http://www.w3.org/TR/2001/REC-SVG-20010904/DTD/svg10.dtd">
<svg version="1.0" xmlns="http://www.w3.org/2000/svg"
 width="1024.000000pt" height="1024.000000pt" viewBox="0 0 1024.000000 1024.000000"
 preserveAspectRatio="xMidYMid meet">

<g transform="translate(0.000000,1024.000000) scale(0.100000,-0.100000)"
fill="#000000" stroke="none">
<path d="M5337 8764 c-201 -29 -474 -139 -658 -265 -201 -138 -398 -343 -494
-514 -16 -27 -30 -52 -32 -54 -1 -2 -33 10 -70 27 -114 52 -254 77 -428 77
-184 0 -268 -20 -430 -100 -133 -66 -245 -157 -338 -277 -76 -98 -111 -164
-142 -267 l-22 -76 -69 -25 c-240 -89 -427 -245 -586 -486 -148 -225 -208
-405 -224 -682 -16 -264 69 -557 228 -790 147 -214 415 -417 653 -495 197 -65
230 -70 520 -74 l270 -5 3 -526 c1 -290 -1 -532 -5 -538 -5 -6 -24 -16 -44
-23 -41 -13 -93 -63 -108 -104 -15 -40 -14 -122 3 -160 32 -75 119 -118 197
-97 48 13 117 72 136 117 28 68 4 167 -51 210 l-26 21 0 159 c0 88 3 336 7
551 l6 392 139 0 138 0 0 -760 c0 -636 -2 -760 -14 -760 -46 0 -116 -111 -116
-185 0 -47 28 -111 61 -142 52 -47 135 -56 205 -22 33 15 49 32 68 72 46 91
27 181 -53 249 l-41 35 0 704 c0 387 3 728 6 757 l7 52 107 0 108 0 5 -692 c4
-381 9 -708 13 -725 5 -27 11 -33 33 -33 59 0 56 -45 61 729 3 390 7 711 10
714 3 2 52 7 109 10 l103 5 -3 -1052 -4 -1052 -50 -20 c-64 -25 -106 -82 -113
-152 -6 -66 10 -110 58 -157 36 -36 45 -39 102 -43 77 -4 120 16 160 73 53 76
50 161 -10 227 l-37 41 0 241 c0 133 1 611 3 1064 l2 822 145 0 145 0 0 -1257
c0 -692 3 -1287 6 -1323 l6 -65 -40 -16 c-94 -39 -128 -172 -67 -261 34 -49
102 -88 152 -88 41 0 100 24 132 53 30 28 60 93 61 130 0 63 -53 144 -112 168
l-29 12 3 1323 c2 727 5 1324 8 1326 3 2 71 2 152 0 l147 -3 3 -1062 3 -1062
-22 -20 c-85 -79 -70 -259 27 -307 64 -32 159 -21 209 25 100 92 68 258 -60
311 l-36 15 -6 128 c-4 70 -7 544 -7 1053 l0 925 115 -3 115 -3 0 -732 c0
-403 5 -750 10 -771 13 -59 48 -74 75 -32 14 20 16 121 22 782 l6 759 118 -3
c111 -3 117 -4 120 -25 2 -12 3 -357 1 -767 l-2 -745 -28 -13 c-63 -28 -100
-142 -73 -225 24 -71 122 -127 196 -113 69 13 136 81 149 151 14 71 -35 164
-105 201 l-29 15 0 637 c0 350 3 693 6 762 l7 125 138 0 139 0 0 -557 0 -556
-29 -30 c-30 -29 -51 -85 -51 -135 0 -60 46 -134 102 -163 34 -18 119 -18 161
0 67 27 116 118 103 188 -13 71 -92 158 -144 158 -11 0 -24 4 -27 10 -9 15 -7
1048 2 1065 7 12 53 15 258 18 214 3 262 6 335 25 283 70 515 198 694 382 267
275 387 616 355 1007 -24 298 -128 548 -328 783 -166 197 -400 353 -639 427
-48 14 -90 31 -93 36 -4 5 -9 32 -13 61 -11 92 -56 229 -121 361 -168 345
-375 566 -712 758 -137 78 -274 125 -461 157 -137 24 -394 26 -545 4z m538
-218 c474 -89 881 -452 1043 -931 32 -92 57 -218 67 -337 l6 -67 47 -5 c179
-21 288 -57 429 -141 271 -161 480 -462 547 -789 21 -97 21 -317 1 -411 -38
-178 -96 -308 -199 -446 -118 -156 -254 -264 -436 -345 -192 -86 -197 -87
-700 -93 -245 -3 -447 -4 -450 -3 -7 5 -2 314 5 372 4 25 9 51 13 57 5 8 115
12 365 15 294 2 357 1 357 -10 0 -50 78 -112 140 -112 55 0 128 48 156 102 32
62 0 155 -66 189 -68 36 -176 15 -208 -40 l-14 -26 -332 3 c-182 1 -364 -1
-405 -5 -115 -12 -113 -8 -117 -299 -2 -130 -5 -238 -6 -240 -2 -1 -51 -4
-111 -6 l-107 -3 0 75 c0 66 11 284 26 525 l5 80 96 110 c52 61 100 113 107
117 7 4 187 10 402 13 337 6 431 11 504 27 12 2 16 -11 18 -60 l3 -64 144 4
c79 1 146 5 148 8 3 3 9 65 13 138 l7 132 -64 0 c-35 0 -108 3 -161 7 l-98 6
0 -62 c0 -54 -2 -61 -14 -48 -13 12 -85 15 -453 15 -241 1 -454 -2 -473 -6
-29 -6 -61 -34 -171 -151 l-136 -143 -6 -307 c-4 -168 -10 -330 -13 -358 l-7
-53 -82 0 -82 0 -6 242 c-8 294 -7 754 1 825 6 47 16 62 106 170 54 65 136
157 182 206 l85 87 614 0 613 0 12 -35 c22 -67 107 -113 175 -94 109 30 158
167 89 248 -32 39 -98 64 -144 56 -43 -8 -106 -48 -114 -73 -6 -16 -13 -17
-84 -9 -42 4 -331 9 -642 10 l-565 2 -59 -55 c-32 -30 -106 -109 -164 -175
-58 -66 -134 -149 -169 -185 l-63 -66 10 -334 c5 -184 10 -444 10 -577 l0
-243 -47 0 c-27 0 -78 -3 -115 -7 l-68 -6 0 1022 0 1022 123 131 122 132 5
152 6 152 36 40 c35 39 58 94 58 137 0 11 -9 38 -19 61 -14 31 -30 47 -63 63
-55 26 -88 27 -137 1 -103 -52 -110 -204 -14 -277 l35 -27 -7 -123 -7 -124
-124 -127 -124 -126 0 -1053 0 -1053 -110 2 -110 3 1 1335 1 1335 41 20 c30
14 48 32 65 65 27 55 28 82 2 134 -27 55 -63 79 -124 84 -94 7 -166 -66 -166
-169 0 -53 3 -63 35 -97 l34 -39 1 -1333 1 -1333 -122 -1 -122 -1 7 547 8 546
-44 39 c-24 22 -94 86 -156 144 -62 57 -124 112 -137 123 -22 17 -57 18 -701
21 -649 2 -679 3 -689 21 -39 71 -117 106 -187 85 -54 -17 -104 -67 -113 -113
-9 -49 23 -121 66 -147 44 -27 106 -35 158 -21 33 9 45 18 58 45 l17 35 655 0
656 0 148 -146 147 -146 0 -502 c0 -275 -4 -507 -9 -514 -6 -10 -41 -14 -130
-15 l-121 -2 -6 34 c-8 42 1 700 10 722 5 11 -15 35 -71 83 l-78 67 -69 -6
c-38 -4 -262 -4 -498 0 l-429 7 -25 37 c-27 42 -81 76 -134 86 -46 8 -116 -28
-148 -75 -20 -29 -23 -44 -20 -94 4 -55 8 -62 51 -102 43 -41 49 -44 102 -44
73 0 129 28 144 71 l11 32 212 -6 c116 -4 340 -7 497 -7 l286 -1 27 -36 28
-36 -5 -146 c-3 -80 -8 -244 -11 -364 l-6 -218 -552 4 c-615 4 -604 3 -788 77
-267 107 -500 343 -608 616 -90 225 -92 548 -5 779 78 205 202 379 362 507 87
69 348 188 413 188 14 0 21 9 26 38 33 197 83 299 204 422 95 98 186 153 310
191 63 20 97 23 215 23 230 -1 395 -55 517 -172 32 -30 59 -53 61 -51 2 2 13
29 26 59 119 278 253 457 461 614 281 211 558 300 910 291 85 -2 191 -10 235
-19z m-2315 -5001 c24 -13 30 -22 30 -50 0 -24 -6 -37 -19 -45 -29 -15 -67
-12 -81 6 -28 32 -9 104 27 104 8 0 27 -7 43 -15z m3074 -1 c11 -4 16 -19 16
-50 0 -38 -3 -44 -24 -50 -44 -11 -70 -1 -88 35 -24 48 -10 71 42 71 21 0 45
-3 54 -6z m-2636 -440 c24 -16 28 -44 12 -75 -12 -22 -68 -27 -88 -7 -16 16
-15 85 1 91 24 10 53 7 75 -9z m2210 4 c28 -28 0 -88 -41 -88 -44 0 -74 59
-45 88 7 7 26 12 43 12 17 0 36 -5 43 -12z m-1573 -583 c31 -30 32 -58 3 -85
-39 -36 -92 -21 -103 30 -15 69 51 105 100 55z m915 -5 c25 -25 25 -41 -1 -74
-51 -65 -138 1 -99 75 15 26 73 26 100 -1z m-466 -536 c23 -22 21 -81 -3 -94
-32 -17 -58 -12 -80 16 -27 34 -27 59 1 78 29 20 62 20 82 0z"/>
<path d="M5905 8126 c-64 -29 -100 -94 -90 -161 8 -46 23 -73 62 -109 l28 -26
3 -366 4 -367 237 6 c130 4 248 10 262 13 23 5 29 0 53 -40 34 -58 56 -69 123
-64 89 8 144 62 150 150 5 69 -20 112 -84 140 -83 37 -165 7 -200 -73 l-18
-41 -59 6 c-32 3 -126 6 -207 6 l-149 0 0 316 0 315 31 27 c37 30 68 94 69
137 0 47 -32 97 -80 122 -49 26 -91 29 -135 9z"/>
<path d="M3484 7346 c-17 -8 -44 -31 -60 -51 -23 -30 -28 -48 -28 -91 0 -87
56 -144 146 -151 71 -6 115 18 148 80 l25 47 324 0 324 0 55 -45 c63 -53 110
-60 136 -23 21 29 20 87 0 117 -35 50 -56 52 -465 51 l-380 -2 -25 27 c-48 51
-134 69 -200 41z"/>
<path d="M3280 6760 l0 -151 153 3 152 3 3 58 3 59 410 -5 410 -4 28 -44 c42
-67 109 -121 146 -117 43 4 45 43 6 112 -19 32 -31 68 -31 88 0 20 -7 41 -15
48 -11 9 -133 14 -485 18 l-470 5 -6 26 c-3 14 -7 30 -8 35 -1 4 -68 10 -149
13 l-147 4 0 -151z"/>
<path d="M6347 6888 c-57 -44 -31 -143 42 -161 35 -9 81 40 81 86 0 48 -33 87
-74 87 -18 0 -40 -6 -49 -12z"/>
<path d="M6341 6302 c-16 -12 -22 -29 -23 -60 -1 -104 89 -136 142 -49 26 42
25 59 -6 96 -30 36 -78 42 -113 13z"/>
<path d="M3674 5510 c-57 -23 -85 -100 -57 -158 23 -48 63 -68 106 -53 101 36
127 151 45 201 -35 21 -60 24 -94 10z"/>
<path d="M6951 4240 c-18 -4 -47 -22 -64 -38 -39 -39 -50 -126 -23 -177 52
-96 202 -83 248 22 36 81 9 156 -69 189 -36 15 -42 16 -92 4z"/>
<path d="M3058 4217 c-105 -88 -55 -257 77 -257 140 0 199 189 82 260 -46 28
-124 27 -159 -3z"/>
</g>
</svg>
