<?xml version="1.0" standalone="no"?>
<!DOCTYPE svg PUBLIC "-//W3C//DTD SVG 20010904//EN"
 "http://www.w3.org/TR/2001/REC-SVG-20010904/DTD/svg10.dtd">
<svg version="1.0" xmlns="http://www.w3.org/2000/svg"
 width="1024.000000pt" height="1024.000000pt" viewBox="0 0 1024.000000 1024.000000"
 preserveAspectRatio="xMidYMid meet">

<g transform="translate(0.000000,1024.000000) scale(0.100000,-0.100000)"
fill="#000000" stroke="none">
<path d="M5000 7910 c-273 -22 -503 -86 -750 -210 -378 -190 -657 -464 -838
-826 l-50 -100 -79 -17 c-278 -61 -522 -272 -609 -528 -30 -87 -43 -174 -46
-299 l-3 -95 -85 -56 c-159 -105 -306 -234 -423 -374 -126 -150 -252 -373
-316 -562 -103 -302 -103 -699 1 -1013 189 -577 707 -1034 1326 -1171 90 -20
137 -22 622 -29 579 -8 593 -9 800 -80 182 -62 399 -186 525 -302 29 -26 57
-48 62 -48 5 0 41 27 79 61 187 163 447 292 694 345 60 13 180 18 605 24 415
6 545 11 600 23 332 72 579 194 832 411 297 254 493 582 569 951 25 123 30
432 10 572 -39 265 -146 516 -319 745 -125 167 -347 368 -509 462 l-48 28 0
71 c0 247 -60 426 -198 592 -100 121 -270 223 -446 267 l-88 23 -43 85 c-245
485 -716 859 -1255 995 -191 49 -434 70 -620 55z m369 -275 c415 -59 773 -252
1048 -564 110 -126 164 -207 253 -386 l75 -150 105 -21 c179 -37 290 -93 382
-192 88 -96 138 -213 138 -325 l0 -48 -32 25 c-18 13 -50 31 -71 40 -23 9 -44
28 -55 48 -9 18 -46 62 -82 98 -97 97 -258 169 -432 192 -83 11 -89 13 -94 37
-25 112 -108 297 -189 420 -128 193 -307 352 -522 463 l-62 33 -21 -20 c-11
-11 -66 -86 -123 -165 -83 -118 -108 -146 -129 -148 -19 -2 -30 3 -38 17 -14
27 -11 31 111 207 55 78 99 147 99 153 0 14 -205 77 -314 96 -49 8 -119 15
-157 15 -83 0 -78 11 -82 -189 -2 -124 -4 -145 -19 -155 -13 -8 -23 -8 -35 0
-18 11 -26 88 -32 297 l-1 47 -59 0 c-32 0 -98 -7 -147 -15 -95 -16 -309 -80
-318 -94 -3 -5 44 -80 104 -166 63 -90 110 -168 110 -181 0 -29 -33 -49 -58
-35 -11 6 -70 82 -133 170 -63 88 -121 161 -129 161 -9 0 -56 -23 -105 -51
-321 -183 -552 -463 -664 -805 l-29 -89 -53 -3 c-146 -9 -356 -95 -462 -191
-21 -19 -53 -59 -69 -88 -17 -29 -36 -53 -42 -53 -7 0 -41 -18 -76 -41 l-63
-41 6 74 c19 251 216 442 520 503 96 19 114 25 124 46 7 13 35 73 63 133 224
486 721 855 1265 940 121 19 366 19 494 1z m-47 -767 c126 -60 224 -182 254
-317 46 -203 -59 -413 -252 -503 -88 -41 -217 -50 -309 -21 -169 54 -287 192
-316 371 -36 216 88 412 311 490 54 19 80 22 152 19 74 -4 98 -10 160 -39z
m896 -94 c25 -17 29 -56 8 -73 -7 -6 -49 -25 -92 -40 -44 -16 -125 -48 -182
-70 -56 -23 -111 -41 -121 -41 -30 0 -46 27 -35 58 8 23 34 37 199 104 105 42
192 77 195 77 3 1 16 -6 28 -15z m-1944 -60 c195 -81 212 -89 220 -109 9 -24
-11 -55 -36 -55 -23 0 -339 123 -375 146 -37 23 -25 84 16 84 8 0 87 -30 175
-66z m293 -461 c8 -20 -27 -49 -75 -63 -31 -8 -41 -7 -61 8 -13 9 -24 21 -25
26 -1 10 72 52 102 59 22 5 51 -10 59 -30z m1348 -32 l160 -68 0 -34 c0 -27
-4 -35 -21 -37 -11 -2 -83 24 -160 58 -76 33 -149 65 -161 70 -35 15 -25 81
12 80 5 -1 82 -31 170 -69z m-1797 -104 c106 -37 212 -101 297 -180 97 -89 99
-93 84 -168 -14 -72 -16 -73 -209 -184 -74 -42 -138 -82 -142 -88 -4 -7 -8
-192 -8 -412 l0 -400 -55 58 c-29 32 -57 66 -60 77 -4 11 -10 20 -14 20 -4 0
-8 6 -8 13 0 6 -19 50 -42 97 -42 84 -85 141 -104 137 -5 -1 -11 6 -12 16 -5
29 -104 94 -120 79 -5 -4 -5 -2 -2 4 15 26 -161 72 -310 81 -97 6 -103 5 -145
-20 -25 -14 -50 -33 -58 -41 -25 -31 -38 -17 -51 53 -17 96 -7 267 21 356 73
232 234 404 455 484 117 42 170 51 300 47 86 -3 126 -9 183 -29z m627 -167
c18 -20 17 -21 -26 -78 -46 -59 -84 -77 -95 -47 -8 20 8 58 47 107 35 43 48
46 74 18z m895 -42 c43 -54 48 -83 17 -102 -32 -19 -133 110 -112 143 16 27
55 10 95 -41z m1344 -10 c11 -16 16 -46 16 -100 l0 -78 63 0 c73 0 107 -18
107 -57 0 -47 -25 -63 -100 -63 l-67 0 -5 -75 c-5 -81 -18 -105 -54 -105 -37
0 -54 36 -54 112 l0 68 -73 0 c-86 0 -117 16 -117 60 0 48 22 60 111 60 l79 0
0 84 c0 64 4 88 16 100 22 23 60 20 78 -6z m-1579 -278 c127 -75 277 -163 333
-195 91 -51 124 -77 111 -89 -7 -6 -247 127 -473 263 -121 72 -221 130 -222
128 -2 -2 -7 -132 -10 -289 l-7 -285 -171 -85 c-94 -47 -256 -131 -361 -187
l-190 -100 -5 282 c-4 165 -2 287 3 295 5 6 60 41 121 75 194 111 489 279 546
312 43 25 59 30 75 22 11 -5 124 -71 250 -147z m905 -1125 l0 -1255 -100 0
-100 0 0 1135 0 1134 -115 68 c-63 37 -115 71 -115 74 0 7 54 20 265 64 88 19
161 34 163 34 1 1 2 -564 2 -1254z m-3302 1074 l-3 -83 -70 -26 c-379 -140
-658 -452 -758 -848 -19 -75 -21 -114 -22 -292 0 -189 2 -213 27 -311 44 -173
113 -328 209 -471 22 -31 39 -61 39 -65 0 -4 -5 -1 -10 7 -6 9 -13 11 -17 5
-12 -16 -83 -18 -83 -3 0 9 -3 9 -10 -2 -11 -18 -13 -16 -95 106 -110 163
-179 331 -211 517 -22 127 -14 392 16 532 89 412 353 748 735 936 127 63 234
101 248 89 4 -4 7 -45 5 -91z m4335 72 c382 -132 715 -452 854 -821 56 -148
89 -387 77 -559 -5 -71 -10 -98 -15 -81 l-7 25 -7 -22 c-7 -23 -45 -33 -45
-13 0 6 -12 10 -26 10 -24 0 -26 -3 -22 -35 2 -19 1 -32 -3 -27 -4 4 -10 23
-12 42 -3 19 -4 7 -4 -27 0 -35 -3 -66 -6 -70 -4 -3 -7 -20 -7 -38 0 -100 -95
-332 -182 -446 -50 -66 -128 -154 -128 -146 0 3 25 39 55 79 70 92 166 285
200 403 61 211 78 405 50 585 -46 299 -172 534 -397 738 -100 90 -241 174
-383 227 l-59 23 -1 86 c0 47 3 86 6 86 3 0 31 -9 62 -19z m-4535 -494 c3 -41
6 -46 30 -49 38 -4 38 -42 0 -46 -26 -3 -28 -7 -28 -48 0 -32 -4 -44 -15 -44
-11 0 -15 12 -15 44 0 35 -4 45 -20 49 -11 3 -20 13 -20 22 0 9 9 19 20 22 17
4 20 14 20 55 0 65 24 61 28 -5z m711 -12 c131 -35 187 -107 226 -295 8 -36
16 -75 19 -88 l5 -23 -32 21 c-56 37 -181 98 -227 110 -25 7 -81 15 -124 19
l-80 6 -33 55 c-40 66 -41 89 -7 130 59 69 150 93 253 65z m3201 -950 l0 -946
-107 3 -108 3 -2 927 -1 926 86 12 c48 6 92 13 97 15 36 12 35 29 35 -940z
m-1491 731 c53 -29 204 -108 337 -176 248 -126 294 -153 281 -166 -7 -8 -146
61 -499 247 -103 55 -189 99 -192 99 -3 0 -6 -70 -6 -155 l0 -155 -40 0 c-22
0 -59 -8 -82 -17 -72 -29 -312 -163 -330 -185 -44 -51 -1 -105 110 -136 37
-11 141 -39 232 -64 473 -129 702 -207 739 -252 18 -22 4 -20 -25 3 -30 23
-121 55 -384 131 -107 31 -203 60 -213 65 -16 7 -19 3 -17 -26 1 -19 2 -87 1
-151 -1 -109 -2 -118 -20 -118 -18 0 -418 109 -541 148 -69 21 -127 66 -154
117 -19 36 -21 60 -24 242 -3 202 -3 202 20 216 90 55 695 386 707 387 1 0 46
-24 100 -54z m2504 -44 c11 -12 17 -41 19 -97 l3 -80 87 -5 c47 -3 90 -9 94
-13 4 -4 8 -24 8 -44 0 -50 -22 -63 -111 -63 l-73 0 0 -67 c0 -85 -15 -117
-56 -121 -17 -2 -36 3 -42 10 -6 8 -12 50 -14 93 l-3 80 -81 5 c-89 6 -114 19
-114 58 0 48 25 62 112 62 l78 0 0 71 c0 89 19 128 61 129 9 0 23 -8 32 -18z
m-5135 -75 c17 -14 15 -67 -5 -89 -22 -24 -58 -23 -83 4 -54 58 24 135 88 85z
m1422 13 c0 -5 -2 -10 -4 -10 -3 0 -8 5 -11 10 -3 6 -1 10 4 10 6 0 11 -4 11
-10z m-585 -74 c101 -27 257 -90 315 -126 32 -21 62 -35 66 -32 4 4 4 2 1 -4
-6 -11 40 -51 53 -47 3 1 7 -7 7 -18 1 -10 -4 -19 -11 -19 -39 0 -123 -36
-159 -68 -62 -55 -124 -102 -135 -102 -6 0 -12 -6 -15 -14 -3 -8 -18 -20 -33
-28 -15 -7 -32 -22 -38 -33 -6 -11 -18 -24 -26 -30 -11 -7 0 -11 45 -16 33 -3
-73 -6 -236 -7 -163 -1 -337 -5 -387 -8 l-92 -7 0 60 c0 241 153 443 376 497
76 18 205 19 269 2z m392 -22 c-3 -3 -12 -4 -19 -1 -8 3 -5 6 6 6 11 1 17 -2
13 -5z m312 -206 c-2 -199 -7 -189 -11 25 -2 81 0 147 4 147 5 0 7 -78 7 -172z
m3001 -603 l0 -665 -110 0 -110 0 0 650 0 650 23 5 c21 5 143 21 180 24 16 1
17 -37 17 -664z m-3003 343 c-3 -7 -5 -2 -5 12 0 14 2 19 5 13 2 -7 2 -19 0
-25z m-474 -55 c-13 -2 -33 -2 -45 0 -13 2 -3 4 22 4 25 0 35 -2 23 -4z m290
0 c-7 -2 -19 -2 -25 0 -7 3 -2 5 12 5 14 0 19 -2 13 -5z m3627 -243 c0 -74 -1
-80 -22 -84 -21 -5 -194 -26 -210 -26 -5 0 -8 36 -8 80 l0 79 33 6 c55 10 151
23 180 24 l27 1 0 -80z m-3446 -59 c10 -9 16 -29 16 -56 0 -72 2 -70 -120 -67
l-110 3 0 -114 c0 -63 -3 -182 -7 -266 l-6 -152 -436 3 c-387 3 -442 6 -491
22 -94 31 -90 18 -90 273 l0 223 -107 0 c-76 0 -103 -3 -93 -10 9 -6 49 -8
103 -4 l87 7 0 -138 0 -137 -30 5 c-39 8 -60 0 -60 -24 0 -10 -6 -19 -14 -19
-8 0 -16 -6 -19 -12 -2 -7 -2 8 0 33 4 38 1 51 -16 68 -11 11 -21 30 -21 41 0
13 -7 20 -20 20 -17 0 -20 -7 -20 -51 0 -31 4 -48 10 -44 6 3 10 1 10 -5 0 -6
5 -8 10 -5 6 3 10 2 10 -4 0 -5 -6 -11 -12 -14 -10 -3 -10 -8 1 -21 11 -13 16
-14 22 -4 6 9 9 9 9 1 0 -25 -19 -22 -44 8 -25 29 -26 36 -28 170 -5 289 -6
272 22 281 14 4 341 6 726 5 573 -2 704 -5 718 -16z m823 -408 l201 -95 194
102 c208 109 254 145 243 189 -6 25 -5 25 11 9 17 -17 17 -20 1 -52 -18 -38
-52 -60 -317 -201 l-150 -80 0 -139 c0 -107 -3 -137 -12 -133 -145 65 -565
243 -630 267 -104 40 -102 34 -92 239 l7 138 171 -74 c94 -41 262 -117 373
-170z m-2117 -53 c0 -5 7 -10 15 -10 8 0 15 -4 15 -10 0 -11 -6 -12 -37 -4
-13 4 -20 11 -16 20 6 16 23 19 23 4z m1915 -368 c149 -62 295 -126 325 -140
l55 -27 3 -148 3 -149 -23 8 c-13 3 -72 31 -133 62 -60 30 -213 104 -340 164
-126 60 -233 115 -237 121 -4 7 -8 67 -8 134 l0 123 43 -17 c23 -9 164 -68
312 -131z"/>
<path d="M8245 4260 c-3 -5 -1 -18 4 -27 9 -16 10 -14 11 10 0 28 -5 34 -15
17z"/>
<path d="M2680 3715 c0 -8 9 -15 20 -15 24 0 27 15 4 24 -22 9 -24 8 -24 -9z"/>
<path d="M2793 3723 c15 -2 39 -2 55 0 15 2 2 4 -28 4 -30 0 -43 -2 -27 -4z"/>
<path d="M2800 3540 c0 -13 7 -20 20 -20 13 0 20 7 20 20 0 13 -7 20 -20 20
-13 0 -20 -7 -20 -20z"/>
<path d="M2575 7561 c-40 -18 -67 -53 -79 -103 -4 -16 -13 -28 -22 -28 -9 0
-31 -15 -50 -34 -43 -43 -46 -90 -8 -135 24 -29 30 -31 95 -31 l69 0 25 -40
c14 -22 29 -40 34 -40 4 0 18 -9 31 -20 26 -23 36 -25 45 -10 4 6 24 22 46 36
28 17 39 31 39 49 l0 25 125 0 c120 0 127 1 150 25 43 42 27 114 -32 144 -31
16 -53 14 -95 -8 -38 -21 -48 -19 -48 12 0 10 -16 35 -35 54 -29 29 -41 34
-66 31 -25 -4 -33 0 -45 24 -16 30 -82 68 -119 68 -11 0 -38 -9 -60 -19z"/>
<path d="M7274 7409 c-16 -29 -43 -63 -61 -75 l-32 -21 30 -22 c16 -12 38 -40
50 -64 36 -71 39 -73 66 -25 13 24 40 59 60 79 l35 37 -31 18 c-17 10 -43 42
-59 72 l-29 54 -29 -53z"/>
<path d="M7543 7225 c-50 -35 -35 -123 23 -145 38 -15 89 10 102 49 27 77 -59
142 -125 96z"/>
</g>
</svg>
